<svg xmlns="http://www.w3.org/2000/svg" width="49.25" height="49.25" viewBox="0 0 49.25 49.25">
  <defs>
    <style>
      .cls-1 {
        fill: #fff;
        fill-rule: evenodd;
      }
    </style>
  </defs>
  <g id="github" transform="translate(-11.538 -11.539)">
    <g id="github-2" data-name="github" transform="translate(11.538 11.538)">
      <path id="Path_44" data-name="Path 44" class="cls-1" d="M19.061,48.528c0-.6-.021-2.187-.033-4.3-6.85,1.525-8.295-3.385-8.295-3.385C9.613,37.931,8,37.154,8,37.154c-2.236-1.567.169-1.534.169-1.534a5.186,5.186,0,0,1,3.772,2.6c2.2,3.858,5.763,2.745,7.167,2.1a5.45,5.45,0,0,1,1.563-3.376c-5.468-.637-11.217-2.8-11.217-12.479a9.9,9.9,0,0,1,2.535-6.775,9.293,9.293,0,0,1,.242-6.682S14.3,10.33,19,13.6a22.761,22.761,0,0,1,12.331,0c4.7-3.267,6.765-2.589,6.765-2.589a9.276,9.276,0,0,1,.245,6.682,9.882,9.882,0,0,1,2.531,6.775c0,9.7-5.758,11.834-11.244,12.459A6.1,6.1,0,0,1,31.3,41.6c0,3.376-.032,6.1-.032,6.927,0,.676.444,1.46,1.695,1.214A25.209,25.209,0,0,0,49.788,25.788c0-13.946-11.026-25.25-24.626-25.25S.538,11.843.538,25.788A25.208,25.208,0,0,0,17.38,49.745C18.611,49.976,19.061,49.2,19.061,48.528Z" transform="translate(-0.538 -0.538)"/>
    </g>
  </g>
</svg>
